<svg id="lace-insert" xmlns="http://www.w3.org/2000/svg" viewBox="0 0 465 232"><defs><style>.cls-1{fill:none;stroke:#231f20;stroke-miterlimit:10;}</style></defs><title>air_max_90_lace-insert_Air Max Lace-insert</title><path class="cls-1" d="M232.41,55.68l6,3.72c-2.94,8.32-9.36,11.9-17.59,9.77a23.85,23.85,0,0,1-7-2.61c-12.41-8-24.69-16.2-37.38-24.57,9.42-6.07,22.85-6.11,29.36-1.39l1.8,9.4,8.87-2.38-.13-1.33,5.94,3.4c-.86,2.71-2,5.16-2.31,7.7-.19,1.38.5,3.59,1.53,4.22s3.34.36,4.53-.39C228.23,59.87,230,57.83,232.41,55.68Z"/><path class="cls-1" d="M321.19,101.42l8.7,4.23c-1,4.69-5.28,10.39,1.22,13.2,6.33,2.74,7.13-4.59,10.11-8l23,8.48c-2.4,5.34-6.85,6.42-11.61,6.71-14.31.86-28.1-2.47-41.92-5.46-2.1-.46-4.16-1.09-6.91-1.82C310.65,113.67,319,110.82,321.19,101.42Z"/></svg>