<svg xmlns="http://www.w3.org/2000/svg" viewBox="0 0 447.99 223.11"><defs><style>.cls-1,.cls-2{fill:#fff;}.cls-1,.cls-3{stroke:#231f20;}.cls-1,.cls-3,.cls-4{stroke-miterlimit:10;}.cls-3,.cls-4{fill:none;}.cls-3{stroke-width:2px;}.cls-4{stroke:#000;}</style></defs><title>Air_Max_90_complete</title><g id="outline_comp"><path id="outline_comp-2" data-name="outline_comp" d="M218.14,120.4c.41-3.24-.12-7,1.42-9.62a142.61,142.61,0,0,1,13.71-19.6c7.05-8.31,13.76-8.42,21.94-1.27,18.93,16.54,37.1,34.06,56.9,49.48,26,20.24,52.6,40.18,84.2,51.08,21.69,7.48,44,13,66.07,19.5,8.62,2.54,17.38,4.82,25.68,8.18,4.25,1.72,8.71,4.83,11.22,8.57a44.76,44.76,0,0,1,6.63,35.78c-.59,2.67-.82,5.43-1.43,8.1a5.64,5.64,0,0,1-1.66,3c-4.27,3.52-8.22,7.94-13.14,10-4.09,1.7-7.72,4.34-11.95,5.54-1.68.47-3.64-.07-5.84-.17-1.64,3-4.38,4.21-8.6,4.39-3.83.16-7.54,2.65-11.35,4-2.92,1-5.65,1.34-8.24-1.38-1.76-1.85-4.14-1.66-4.66,1.45-.56,3.36-2.74,4.28-5.62,4.55a8.92,8.92,0,0,0-2,.28c-10.35,3.47-19.61,2.83-26.24-8-2.9,4.41-5.09,8.12-7.7,11.52a6.24,6.24,0,0,1-4.22,2,112.44,112.44,0,0,1-14.48,0,9.73,9.73,0,0,1-5.56-2.69c-3.39-3.35-5-3.4-8.24-.2a8.6,8.6,0,0,1-5.17,2.23c-8.82.42-17.65.52-26.48.71-1,0-2.55.28-2.89-.22-3-4.43-5.82-1.21-9.34-.7-9,1.3-18.26.76-27.42.79-1,0-2.1-.93-2.88-1.71-3.35-3.35-7.59-2.74-12-.67-3.82,1.79-8.63,1.59-13,2-3.85.34-7.86.58-9.45-4.47-5.16,6.47-18.4,6.31-22.66.05-4.85,7.42-12.17,3.56-18.56,4.06-.61,0-1.54-.79-1.91-1.45-1.73-3.07-3.26-3.57-5.29-.17a4.08,4.08,0,0,1-3.2,1.81c-5.21-.9-11.51,3-15.59-3.36-.21-.34-1.73,0-2.56.26-2.47.8-4.87,2.32-7.36,2.47-6,.36-12,.18-18,.07-3.66-.06-7.36.89-10.28-3.22-1-1.36-5.49-.52-8.31-.13-2.37.33-4.66,2.25-6.92,2.15-19-.83-37.82-3.52-56.05-9.2A56.62,56.62,0,0,1,65.7,289.5c-6-3.9-6.47-8.4-2.89-14.51a22.64,22.64,0,0,0,1.62-21c-1.21-3-.31-6.93-.38-10.43a16.15,16.15,0,0,0-.19-3.15c-1.62-7.24-4.7-14.47-4.73-21.71-.09-26.79,4.45-53,12.31-78.61A40.87,40.87,0,0,1,77.2,128c1.74-2.37,5.18-4.75,7.94-4.85A112.33,112.33,0,0,1,107,124.53c3.17.51,6.32,2.93,8.87,5.17,5.76,5,11.1,10.56,16.7,15.79,14,13.12,30.39,15,46.48,4.39,13.75-9.06,26.91-19,40.33-28.6ZM471,273.92a16.07,16.07,0,0,0-.74-6.32c-3.34-11.56-12.24-17-22.83-20.3-12.28-3.84-24.94-3.68-37.65-3.19-14.81.57-29.63,1-44.44,1.06-17.11.08-33.74-2.41-49.92-8.59-17.1-6.54-34.43-12.59-52-17.84-43.36-13-87.56-23.25-129-42.18-9.33-4.26-18.84-3.22-27.52,2.93-12.63,8.95-25.07,18.23-38.19,26.41-6.21,3.87-8.56,8-7.15,14.9.73,3.58.83,7.3,1.7,10.84A67.33,67.33,0,0,0,66.52,240c5.39-2.12,9.89-4.55,14.69-5.61,6.91-1.52,14.51-4,21-2.48a70,70,0,0,0,23.31,1.31c7.55-.71,15.32,1.09,22.94.7,17.57-.9,34.6,2,51.32,6.7C222.28,247,244.12,255,268,257c23.3,1.94,46.19,8.41,69.42,11.7,40.5,5.75,81.33,6.53,122.18,6.29C463.34,275,467.11,274.3,471,273.92Zm-233.58,26.2c-1.28,4.72,1.75,4.4,4.6,4.38,2.33,0,4.67.15,7,0,1.05-.06,2.9-.55,3-1.05.66-4.36,3.8-3.17,7-3.28-.29,4.52,2.78,4.64,6,4.41,4-.28,9.43.78,11.49-1.37,2.82-3,5.28-2.25,8.13-2.48,1.1-.09,2.19-.24,4.6-.51-1.94-3.8-3-7.4-5.24-10-6.53-7.54-13.56-14.65-20.35-22-6.37-6.87-13.47-12.26-23.42-12.35a11.43,11.43,0,0,1-3.38-.84c-9.62-3.23-19.21-6.58-28.86-9.73-27.68-9.05-56.37-9.44-85-9.22-5.3,0-10.87,2.9-15.79,5.46-5.48,2.86-5.47,6.47-.83,10.55,2.38,2.09,4.92,4,7.28,6.1,7.49,6.72,7.27,10.67-1.07,16.52-5.18,3.63-10.73,6.76-15.72,10.63-2.31,1.79-3.67,4.81-5.46,7.27,2.77,1.86,5.53,3.74,8.31,5.58a2.31,2.31,0,0,0,1,.24c11.57,1.43,23.13,2.88,34.71,4.25,1.29.15,3.44.39,3.81-.23,3.42-5.77,8.65-1.58,12.89-2.5.59-.13,1.43.9,2.16,1.37,1.31.84,2.62,2.32,4,2.37,7.49.23,15,.14,22.49.07a4.77,4.77,0,0,0,3.08-.91c3.39-3.4,4.64-2.3,8.94.1,3.4,1.89,8.51.7,12.87.88,1.23-6.11,5.91-2.64,7.83-3.2,2,1.64,3.55,3.73,4.56,3.52,4.44-1,10.68,3.53,13.13-4.08ZM474.16,273.6c6.32-1.41,12.28-2.27,17.88-4.17a15.79,15.79,0,0,0,7.16-5.83c8-11.54,4.61-31.46-5.38-39.3-5.19,1.87-9.46,4.11-14,4.86-5.87,1-11.93.92-17.92,1.09-23.31.65-46.62,1.11-69.92,1.87-10.3.34-20.58,1.68-30.88,1.77-13.11.12-24.51-4.23-32.71-15.15-6.1-8.11-12.29-16.15-18.41-24.25-10-13.18-13.8-26.93-3.4-42.13l-4.88-3.12c-1.06,1.17-1.66,2-2.41,2.63-2.75,2.42-5.25,7-9.46,4.3s-.8-6.85.19-10.35a39,39,0,0,0,.73-4.17l-1.48-.38c-.64.92-1.29,1.83-1.91,2.75-5,7.47-11.73,10.09-20.31,7.41a39.38,39.38,0,0,1-9.93-4.57C246.88,140.08,236.8,133,226.67,126c-1.6-1.1-3.09-2.35-4.66-3.55l-9.81,7.2c2.34,2.78,4.65,5.17,6.56,7.86,5.2,7.31,10.78,14.44,15.17,22.22,5,8.77,3,13.86-6.41,17.75-6,2.47-12.37,3.81-18.58,5.63-1.22.36-2.47.62-3.71.93a78,78,0,0,0,12.59,2.42c13.7,1.84,27.38,3.82,41.11,5.45,10.89,1.3,15.68-5,12-15.34-.64-1.79-1.34-3.55-2.49-6.55,10.94,6.19,20.14,12.33,26.15,22.15,5.21,8.5,4.33,16.47-2.45,23.78-2.23,2.41-4.86,4.45-8,7.31,17.93,5.76,35,12.87,52.79,16.55,23.9,4.95,48.41,3.63,72.72,1.74,12.88-1,25.65-.59,38.13,3.1C461.89,248.87,472,257,474.16,273.6Zm-216.83-16-.42,1.06c1.18,1.08,2.41,2.11,3.53,3.24,7.73,7.8,15.82,15.29,23,23.58,3.43,4,4.91,9.57,7.6,14.25,1.14,2,.68,5.43,4.73,5.26,7.65-.32,15.32-.15,23-.41,1.15,0,2.21-1.78,3.41-1.92a32,32,0,0,1,8,0c1.43.2,2.7,2.15,4,2.15,8.32,0,16.65-.25,25-.54,1.23,0,2.86-.33,3.58-1.15,4.12-4.7,8.54-4.69,12.47,0a6.58,6.58,0,0,0,4.29,1.81,81.19,81.19,0,0,0,12.47-.05c1.43-.14,2.91-1.72,4-3,2.53-2.95,4.78-6.14,7.29-9.12a2.41,2.41,0,0,1,2.29-.24c3.14,1.84,7.6,3.2,8.9,6,1.95,4.18,4.12,3.31,7.1,2.67s5.89-1.12,8.86-1.53c3.61-.49,7.22-.86,5.82-6.26l8.07-1.77c1.62,1.85,3.81,3.67,5.31,3.21,3.23-1,7.92.55,9.41-4.53.19-.63,3-1.34,3.76-.81,3,2.07,4.77,1.26,6.25-1.73,1.13-2.27,2.49-3.06,5.4-2,1.66.62,5.17-.56,6.16-2,1.55-2.34,2.6-3.1,5.32-2.25,1.06.33,3.75-.9,3.74-1.39-.08-4.9,3.32-3,5.16-2.92,1-1.81,1.79-4.37,2.52-4.35,6.17.13,3.39-4.52,3.93-6.15-3,1.77-6.42,4.84-10.34,5.85a143.7,143.7,0,0,1-25,4.48c-34,2.52-68,.09-101.76-2.85-25.13-2.19-50-7.68-74.94-11.66C278.57,260.83,267.94,259.26,257.32,257.63ZM61.55,205.78l1.58,1.36c13.13-9.08,26.75-17.54,39.24-27.42,10.95-8.66,22-10,34.52-5.2a37.85,37.85,0,0,0,8.15,2.14c13.69,1.92,27.38,3.86,41.1,5.44,14.8,1.71,28.77-2,42.13-7.93,6-2.68,6.86-5.67,4.14-11.73-5.32-11.85-13.91-21.34-22.42-31.23-9.58,6.83-18.72,13.46-28,19.92-17,11.87-36,10.52-51-3.53-4-3.75-8.41-7.22-11.84-11.45-8.83-10.9-20.81-11.39-33.15-10.68-2.44.14-4.78,1.83-7.17,2.81l.52,1.23c9-1.82,11.76-.93,18.1,5.82,1.25,1.34,2.49,2.69,3.7,4.07,11.57,13.24,11.23,18.35-2,30.25C88,179.81,76.66,189.92,65.49,200.17,63.85,201.68,62.85,203.89,61.55,205.78Zm264.2,5.39c8.11,12.3,18.92,20.36,34.41,20,9.46-.2,18.91-1.14,28.38-1.43,25-.77,49.92-1.28,74.87-2.07A175,175,0,0,0,482.76,226c2.51-.36,4.82-2.16,7.21-3.3l-.16-2.07-74.36-21.07c-4,6.32-6.44,8.18-13.21,8.92a48.75,48.75,0,0,1-12.92,0c-12.47-2-24.85-4.61-37.31-6.74a13.43,13.43,0,0,0-7,.71C338.57,205.06,332.32,208.14,325.75,211.17ZM151,180.14l-.2,1.27c13.37,4.49,26.65,9.29,40.14,13.39,27.86,8.48,55.9,16.41,83.72,25,5,1.54,8.32,1,12.09-2.25,7.69-6.55,10.33-13.45,7.08-21-3.9-9-11.45-14.56-19.76-20.3,2,14.13-3.84,19.87-17.18,18.05-12-1.64-24.1-3.22-36.15-4.84Zm-42.23,55.38c-3.88-.54-8-2.14-11.59-1.43a199.26,199.26,0,0,0-25.83,7c-6.23,2.13-7.5,5.86-4.71,11.82,3.82,8.18,2.73,15.85-1.62,23.35-3,5.12-2.78,8.44,2.44,11.26,6.71,3.62,14,6.13,21.06,9.12l.94-1.13c-2.09-4.52.05-7.75,3.2-10.18,4.73-3.66,9.68-7,14.7-10.29,11.46-7.42,11.61-9.1,1.08-17.73C97.25,248.14,97.28,245.84,108.79,235.52ZM62.24,197.75l1.52.4Q82.59,181.09,101.38,164a23.45,23.45,0,0,0,3.42-4.27c2.7-4,3-8-.24-11.93-3.53-4.19-6.89-8.56-10.74-12.45-7.05-7.12-16.6-5-19.53,4.59-3.09,10.15-5.45,20.55-7.62,30.95C64.82,179.77,63.69,188.79,62.24,197.75ZM341,169.66c-2.86,2.72-5.06,5.28-7.74,7.15-1.19.83-3.94,1-4.92.2a6.34,6.34,0,0,1-1.74-5.08c.39-2.53,1.82-4.89,2.91-7.59l-9-4.51c-2.65,2.62-4.69,5.1-7.2,6.92-1.22.88-4,1.27-4.9.51a6.33,6.33,0,0,1-1.71-5.08c.39-2.63,1.77-5.12,2.73-7.67a3.19,3.19,0,0,0-2,1.44c-7,11.13-5,22,1.47,32.38,3.61,5.77,7.92,11.1,11.67,16.79,1.78,2.7,3.78,3.66,6.63,2.16,11.43-6,22.86-12.05,34.21-18.23a10.94,10.94,0,0,0,3.34-3.65c2.55-3.8,1.79-5.73-2.55-7.52-2.38,2.65-4.43,5.58-7.13,7.66-1.36,1-4.61,1.43-5.76.53-1.41-1.11-2.18-3.93-2-5.91.19-2.29,1.71-4.46,2.71-6.84Zm-74.75-65.84c-4.64-4.34-8.89-8.55-13.4-12.47-6.34-5.52-11.35-5.65-16.84.72s-9.91,13.28-14.41,20.23c-1,1.61-.42,4.29-.62,7.28,12.61-5,24-7.15,35.43-1.1Zm-1.55,22.65-.25,1.21-8.9,2.4-1.77-9.47c-6.49-4.69-20.59-4.61-29.15,1.52,12.51,8.26,24.68,16.37,37,24.31a23.88,23.88,0,0,0,6.94,2.71c8.37,2.17,14.48-1.11,17.92-9.69l-6.08-3.7c-2.26,2-4,4.13-6.26,5.46a5.88,5.88,0,0,1-5,.29c-1-.51-1.47-2.92-1.26-4.35.36-2.4,1.46-4.69,2.36-7.36ZM369.17,181.4c-2.18,9.46-10.58,12.22-17.45,17.47,5.92,1.36,11,3,16.28,3.65,10.85,1.44,21.74,2.71,32.66,3.4,4.61.29,9.26-1.19,11.55-6.61l-22.88-8.43c-3.17,3.28-3.83,10.76-10.23,8s-2.25-8.51-1.21-13.19ZM293,140.29l5.38-7.94-10.43-8.66-6.13,9.69Zm-21.17-12.64,7.71-11.28-5-4.69-8.24,12.46ZM308,139.89l-4.7,7.15,7.88,5,4.4-6.32Zm16.84,12.49-3.6,6.4c5-1.41,7.8,6.38,12.81.08Z" transform="translate(-59.12 -84.73)"/></g><g id="sole"><path id="sole-2" data-name="sole" class="cls-1" d="M257.32,257.63c10.62,1.63,21.25,3.2,31.86,4.89,25,4,49.81,9.47,74.94,11.66,33.79,2.95,67.77,5.38,101.76,2.85a143.7,143.7,0,0,0,25-4.48c3.93-1,7.32-4.08,10.34-5.85-.54,1.63,2.24,6.28-3.93,6.15-.73,0-1.52,2.55-2.52,4.35-1.84-.12-5.24-2-5.16,2.92,0,.49-2.68,1.72-3.74,1.39-2.72-.85-3.76-.08-5.32,2.25-1,1.49-4.5,2.66-6.16,2-2.91-1.08-4.27-.3-5.4,2-1.48,3-3.23,3.81-6.25,1.73-.77-.53-3.58.18-3.76.81-1.49,5.07-6.18,3.53-9.41,4.53-1.5.46-3.69-1.35-5.31-3.21l-8.07,1.77c1.39,5.4-2.21,5.77-5.82,6.26-3,.41-5.93.9-8.86,1.53s-5.15,1.51-7.1-2.67c-1.3-2.79-5.76-4.15-8.9-6a2.41,2.41,0,0,0-2.29.24c-2.51,3-4.76,6.17-7.29,9.12-1.08,1.25-2.56,2.84-4,3a81.19,81.19,0,0,1-12.47.05,6.58,6.58,0,0,1-4.29-1.81c-3.92-4.66-8.34-4.67-12.47,0-.72.82-2.35,1.11-3.58,1.15-8.32.29-16.65.56-25,.54-1.35,0-2.62-2-4-2.15a32,32,0,0,0-8,0c-1.2.14-2.26,1.88-3.41,1.92-7.65.26-15.32.1-23,.41-4,.17-3.59-3.28-4.73-5.26-2.68-4.68-4.17-10.28-7.6-14.25-7.16-8.29-15.25-15.78-23-23.58-1.12-1.13-2.35-2.16-3.53-3.24Z" transform="translate(-59.12 -84.73)"/><path class="cls-1" d="M108.79,235.52c-11.51,10.32-11.54,12.62-.33,21.81,10.53,8.63,10.38,10.31-1.08,17.73-5,3.25-10,6.63-14.7,10.29-3.14,2.43-5.28,5.65-3.2,10.18l-.94,1.13c-7-3-14.35-5.5-21.06-9.12-5.22-2.81-5.41-6.13-2.44-11.26,4.35-7.5,5.44-15.16,1.62-23.35-2.78-6-1.52-9.69,4.71-11.82a199.26,199.26,0,0,1,25.83-7C100.83,233.38,104.92,235,108.79,235.52Z" transform="translate(-59.12 -84.73)"/></g><g id="lace-insert"><path id="lace-insert-2" data-name="lace-insert" class="cls-2" d="M264.75,126.47l5.56,3.3c-.9,2.68-2,5-2.36,7.36-.21,1.43.3,3.83,1.26,4.35a5.88,5.88,0,0,0,5-.29c2.23-1.33,4-3.42,6.26-5.46l6.08,3.7c-3.45,8.59-9.56,11.86-17.92,9.69a23.88,23.88,0,0,1-6.94-2.71c-12.28-7.93-24.44-16-37-24.31,8.56-6.13,22.66-6.2,29.15-1.52l1.77,9.47,8.9-2.4Z" transform="translate(-59.12 -84.73)"/><path id="lace-insert-btm" class="cls-2" d="M369.17,181.4l8.71,4.26c-1,4.68-5.27,10.36,1.21,13.19s7.06-4.69,10.23-8l22.88,8.43c-2.29,5.42-6.93,6.9-11.55,6.61-10.92-.69-21.81-2-32.66-3.4-5.24-.69-10.36-2.29-16.28-3.65C358.59,193.62,367,190.86,369.17,181.4Z" transform="translate(-59.12 -84.73)"/></g><g id="mid-lace-panel"><path class="cls-1" d="M341,169.66l9,3.65c-1,2.38-2.52,4.55-2.71,6.84-.17,2,.6,4.8,2,5.91,1.15.9,4.39.52,5.76-.53,2.7-2.08,4.75-5,7.13-7.66,4.34,1.79,5.1,3.73,2.55,7.52A10.94,10.94,0,0,1,361.4,189c-11.35,6.18-22.78,12.21-34.21,18.23-2.85,1.5-4.85.55-6.63-2.16-3.75-5.69-8.06-11-11.67-16.79-6.51-10.42-8.5-21.25-1.47-32.38a3.19,3.19,0,0,1,2-1.44c-1,2.55-2.33,5-2.73,7.67a6.33,6.33,0,0,0,1.71,5.08c.94.76,3.68.37,4.9-.51,2.52-1.82,4.56-4.3,7.2-6.92l9,4.51c-1.09,2.7-2.52,5.06-2.91,7.59a6.34,6.34,0,0,0,1.74,5.08c1,.81,3.72.64,4.92-.2C336,174.94,338.18,172.39,341,169.66ZM319.9,180.92c-2.25-1.4-3.63-2.93-5-2.88-1.07,0-3.09,2.31-2.87,3a5.31,5.31,0,0,0,3.37,3.19C316.41,184.42,317.75,182.61,319.9,180.92ZM340.69,189c-2.17-1.53-3.45-3.11-4.75-3.13-1.06,0-3.17,2.1-3,2.81a5.24,5.24,0,0,0,3.15,3.32C337,192.29,338.45,190.59,340.69,189Z" transform="translate(-59.12 -84.73)"/><path d="M319.9,180.92c-2.14,1.68-3.49,3.5-4.46,3.32a5.31,5.31,0,0,1-3.37-3.19c-.22-.7,1.81-3,2.87-3C316.27,178,317.65,179.52,319.9,180.92Z" transform="translate(-59.12 -84.73)"/><path d="M340.69,189c-2.24,1.55-3.67,3.24-4.59,3a5.24,5.24,0,0,1-3.15-3.32c-.18-.71,1.93-2.83,3-2.81C337.24,185.94,338.52,187.52,340.69,189Z" transform="translate(-59.12 -84.73)"/></g><g id="air-pocket"><rect id="air-pocket-2" data-name="air-pocket" class="cls-3" x="136.08" y="265.44" width="94.92" height="19.16" rx="9.58" ry="9.58" transform="translate(-51.99 -89.36) rotate(1.47)"/></g><g id="tongue"><path id="t1" class="cls-1" d="M266.29,103.82l-9.84,14.66c-11.46-6.05-22.82-3.93-35.43,1.1.2-3-.42-5.67.62-7.28,4.5-7,9-14,14.41-20.23s10.5-6.24,16.84-.72C257.4,95.27,261.65,99.48,266.29,103.82Z" transform="translate(-59.12 -84.73)"/><path id="t2" class="cls-1" d="M271.82,127.65l-5.59-3.51,8.24-12.46,5,4.69Z" transform="translate(-59.12 -84.73)"/><path id="t3" class="cls-1" d="M293,140.29l-11.17-6.91,6.13-9.69,10.43,8.66Z" transform="translate(-59.12 -84.73)"/><path id="t4" class="cls-1" d="M308,139.89l7.58,5.85-4.4,6.32-7.88-5Z" transform="translate(-59.12 -84.73)"/><path id="t5" class="cls-1" d="M324.89,152.38l9.21,6.48c-5,6.3-7.84-1.5-12.81-.08Z" transform="translate(-59.12 -84.73)"/></g><g id="bottom-panel"><path id="bottom-panel-2" data-name="bottom-panel" class="cls-1" d="M471,273.92c-3.87.38-7.64,1-11.42,1.06-40.85.24-81.68-.54-122.18-6.29-23.24-3.3-46.12-9.76-69.42-11.7-23.84-2-45.68-10-68.22-16.32C183,236,166,233.07,148.43,234c-7.62.39-15.38-1.41-22.94-.7A70,70,0,0,1,102.18,232c-6.47-1.51-14.06,1-21,2.48-4.8,1.06-9.3,3.49-14.69,5.61a67.33,67.33,0,0,1-3.22-8.42c-.87-3.54-1-7.26-1.7-10.84-1.41-6.87.93-11,7.15-14.9,13.12-8.17,25.55-17.46,38.19-26.41,8.68-6.15,18.19-7.19,27.52-2.93,41.44,18.93,85.64,29.21,129,42.18,17.53,5.24,34.86,11.3,52,17.84,16.18,6.18,32.81,8.67,49.92,8.59,14.82-.07,29.64-.49,44.44-1.06,12.71-.49,25.37-.64,37.65,3.19,10.59,3.31,19.49,8.74,22.83,20.3a16.07,16.07,0,0,1,.74,6.32ZM203.32,235.05c6.32.42,10.89-3.29,15.26-6.77,2.24-1.78,4.71-4.94,4.63-7.39-.06-1.77-3.91-4.1-6.49-5-13-4.55-26.52-8-39.28-13.21-15.94-6.49-27.09,3.24-39.15,10-3.41,1.91-2.69,5.46.89,7.57a18.44,18.44,0,0,0,5.12,1.85q23.1,5.42,46.24,10.69C194.76,233.74,199.06,234.31,203.32,235.05Z" transform="translate(-59.12 -84.73)"/></g><g id="top-panel"><path id="top-panel-2" data-name="top-panel" class="cls-1" d="M474.16,273.6C472,257,461.89,248.87,447.72,244.67c-12.48-3.7-25.25-4.11-38.13-3.1-24.31,1.89-48.82,3.21-72.72-1.74C319.09,236.14,302,229,284.09,223.27c3.17-2.87,5.8-4.91,8-7.31,6.78-7.32,7.66-15.28,2.45-23.78-6-9.81-15.21-16-26.15-22.15,1.14,3,1.85,4.77,2.49,6.55,3.7,10.33-1.09,16.63-12,15.34-13.72-1.64-27.41-3.62-41.11-5.45A78,78,0,0,1,205.23,184c1.24-.31,2.49-.57,3.71-.93,6.22-1.83,12.63-3.17,18.58-5.63,9.38-3.89,11.36-9,6.41-17.75-4.4-7.78-10-14.91-15.17-22.22-1.91-2.68-4.22-5.08-6.56-7.86l9.81-7.2c1.57,1.2,3.06,2.44,4.66,3.55,10.13,7,20.21,14.08,30.49,20.88a39.38,39.38,0,0,0,9.93,4.57c8.58,2.67,15.3.06,20.31-7.41.62-.93,1.27-1.84,1.91-2.75l1.48.38a39,39,0,0,1-.73,4.17c-1,3.5-4.5,7.56-.19,10.35s6.71-1.88,9.46-4.3c.74-.65,1.35-1.47,2.41-2.63l4.88,3.12c-10.4,15.2-6.55,28.95,3.4,42.13,6.12,8.1,12.31,16.14,18.41,24.25,8.2,10.92,19.6,15.26,32.71,15.15,10.3-.09,20.58-1.43,30.88-1.77,23.3-.76,46.61-1.22,69.92-1.87,6-.17,12-.11,17.92-1.09,4.52-.76,8.78-3,14-4.86,10,7.84,13.43,27.76,5.38,39.3a15.79,15.79,0,0,1-7.16,5.83C486.43,271.33,480.48,272.19,474.16,273.6Z" transform="translate(-59.12 -84.73)"/></g><g id="heel-upper"><path id="heel-upper-2" data-name="heel-upper" class="cls-1" d="M61.55,205.78c1.3-1.89,2.3-4.1,3.94-5.62C76.66,189.92,88,179.81,99.21,169.66c13.2-11.9,13.54-17,2-30.25-1.21-1.38-2.44-2.73-3.7-4.07-6.34-6.75-9.11-7.64-18.1-5.82l-.52-1.23c2.39-1,4.73-2.67,7.17-2.81,12.35-.71,24.33-.22,33.15,10.68,3.43,4.24,7.83,7.7,11.84,11.45,15,14,34,15.39,51,3.53,9.26-6.46,18.4-13.09,28-19.92,8.51,9.88,17.11,19.38,22.42,31.23,2.72,6.06,1.88,9-4.14,11.73-13.36,5.95-27.33,9.64-42.13,7.93-13.73-1.59-27.42-3.52-41.1-5.44a37.85,37.85,0,0,1-8.15-2.14c-12.52-4.77-23.57-3.46-34.52,5.2-12.49,9.88-26.11,18.34-39.24,27.42Z" transform="translate(-59.12 -84.73)"/></g><g id="toe-cap"><path id="toe-cap-2" data-name="toe-cap" class="cls-1" d="M325.75,211.17c6.57-3,12.83-6.11,19.26-8.76a13.43,13.43,0,0,1,7-.71c12.46,2.13,24.83,4.72,37.31,6.74a48.75,48.75,0,0,0,12.92,0c6.76-.74,9.21-2.6,13.21-8.92l74.36,21.07.16,2.07c-2.4,1.14-4.7,2.94-7.21,3.3a175,175,0,0,1-19.36,1.69c-25,.78-49.91,1.3-74.87,2.07-9.46.29-18.91,1.23-28.38,1.43C344.67,231.53,333.85,223.47,325.75,211.17Z" transform="translate(-59.12 -84.73)"/></g><g id="swoosh"><path id="swoosh-2" data-name="swoosh" class="cls-1" d="M151,180.14l69.75,9.36c12,1.62,24.1,3.19,36.15,4.84,13.34,1.82,19.17-3.93,17.18-18.05,8.31,5.74,15.86,11.25,19.76,20.3,3.25,7.54.6,14.44-7.08,21-3.77,3.21-7.12,3.79-12.09,2.25-27.82-8.61-55.86-16.54-83.72-25-13.49-4.11-26.77-8.91-40.14-13.39Z" transform="translate(-59.12 -84.73)"/></g><g id="heel-insert"><path id="heel-insert-2" data-name="heel-insert" class="cls-1" d="M62.24,197.75c1.45-9,2.58-18,4.44-26.86,2.17-10.4,4.53-20.8,7.62-30.95,2.93-9.64,12.48-11.71,19.53-4.59,3.85,3.89,7.21,8.26,10.74,12.45,3.27,3.88,2.94,7.93.24,11.93a23.45,23.45,0,0,1-3.42,4.27q-18.76,17.14-37.62,34.16Z" transform="translate(-59.12 -84.73)"/></g><g id="max-insert"><path id="max-insert-2" data-name="max-insert" class="cls-4" d="M138.62,215.27c2.63-1.55,5.17-3.31,7.92-4.6,20.1-9.49,14.69-10.37,38-2.69,10.58,3.49,21.21,6.84,31.76,10.43,1.74.59,3.17,2.08,4.75,3.15a34.36,34.36,0,0,1-3.61,4.52c-6.28,5.66-13.49,7.15-21.76,5.16-17.3-4.17-34.69-8-52-12a25.68,25.68,0,0,1-4.78-2.2Z" transform="translate(-59.12 -84.73)"/></g></svg>