<svg id="toe-cap" xmlns="http://www.w3.org/2000/svg" viewBox="0 0 465 232"><defs><style>.cls-1{fill:none;stroke:#231f20;stroke-miterlimit:10;}</style></defs><title>air_max_90_toecap_Air Max Toe-cap</title><path class="cls-1" d="M367.14,119.46l75.19,21.34c-3,5.14-7.26,5.54-11.23,6a129.33,129.33,0,0,1-16.45,1c-30.33-.3-60.6.31-90.81,3.42a75.12,75.12,0,0,1-18.41-.67c-12.31-1.81-20.52-7.94-27.67-19.38,6.69-3.09,13.36-6.33,20.17-9.23a10.56,10.56,0,0,1,5.67-.38c12.76,2.26,25.45,4.92,38.24,7,4.35.69,9,.19,13.4-.22C360.51,127.78,364.73,125.34,367.14,119.46Z"/></svg>