<svg id="mid-lace-panel" xmlns="http://www.w3.org/2000/svg" viewBox="0 0 465 232"><defs><style>.cls-1{fill:none;stroke:#231f20;stroke-miterlimit:10;}</style></defs><title>air_max_90_mid-lace-panel_Air Max Mid-lace-panel</title><path class="cls-1" d="M261.42,74.58c-1,2.59-2.26,5.11-2.73,7.79-.27,1.51.37,3.92,1.47,4.71a5.29,5.29,0,0,0,4.89-.16c2.69-1.86,4.91-4.39,7.69-7l8.86,4.46c-1.1,2.69-2.54,5.07-3,7.61a6.27,6.27,0,0,0,1.78,5c1,.8,3.31.2,5-.16.87-.19,1.61-1.12,2.34-1.8,6-5.57,6-5.57,14.21-1.52-.94,2.19-2.47,4.36-2.66,6.64-.17,2,.63,4.8,2,5.91,1.13.89,4,.21,5.79-.57,1.55-.69,2.68-2.42,3.85-3.8s2.15-2.88,3.2-4.31c4.58,3,5,5,2,8.78a11.47,11.47,0,0,1-3.14,3.17c-11.22,6-22.5,12-33.79,17.9-2.84,1.49-4.91.72-6.63-2.07-6-9.68-14.68-17.76-17-29.56C254,87.64,255.82,80.6,261.42,74.58Zm5.64,21.88c-1.5,2.19-3.18,3.62-2.94,4.55.34,1.33,2.08,2.31,3.23,3.43,1-1.08,3-2.17,2.94-3.25,0-1.29-1.65-2.56-3.23-4.73Zm25.39,12.36c-2-1.4-3.52-3.11-4.39-2.85-1.32.4-2.21,2.19-3.28,3.39,1.15.95,2.29,2.6,3.47,2.64s2.27-1.64,4.2-3.19Z"/></svg>