<svg id="sole" xmlns="http://www.w3.org/2000/svg" viewBox="0 0 465 232"><defs><style>.cls-1{fill:none;stroke:#231f20;stroke-miterlimit:10;}</style></defs><title>air_max_90_sole_Air Max Sole</title><path class="cls-1" d="M453.44,186.42c-.38,2.12,1.35,6.28-4.29,6.63-.76,0-1.35,2.66-2.86,3.05a51.8,51.8,0,0,1-4.5,3.67,26.41,26.41,0,0,1-4.07,1.76c-1.62.7-3.69,1-4.76,2.24-2,2.24-3.52,3.76-6.83,2.23-1.24-.57-4.36.13-4.79,1.09-1.74,3.84-3.49,5.09-7,1.92-.46-.41-2.87.3-3.28,1.07-2.59,4.84-9.45,5.88-14,2.89-2-1.29-5.47-.22-8.45-.22l-.69,5.77c-5.81,1.12-11.64,2.28-17.48,3.33-.73.13-2.23-.23-2.26-.47-.47-4.94-6.11-3.85-8.22-7.19-1.76-2.78-4.63-2.84-6.64.72-1.8,3.2-3.93,6.21-6,9.24a2.37,2.37,0,0,1-1.72.76c-5.33,0-10.65,0-16-.08a2.61,2.61,0,0,1-2-1.16c-1.7-5.6-6.23-3.48-9.86-3.7-.73,0-2.13.44-2.15.76-.4,4.78-4.1,3.52-6.79,3.64q-10,.47-20,.48c-2.66,0-5.85,1.45-7.38-3-.36-1-5.17-2.62-7.5.93a5,5,0,0,1-3.51,1.85c-7.49.22-15-.07-22.47.37-3.84.22-4.35-2.8-4.64-4.64-1.23-7.94-6.22-13.49-11.22-19-7.22-8-14.68-15.8-21.92-23.56,7.87,1.15,16.64,2.28,25.35,3.74,23.1,3.89,46.09,8.61,69.3,11.68,16.79,2.22,33.84,2.76,50.8,3.26,20.94.62,41.92.86,62.86.36,8.36-.2,16.78-2.36,25-4.51C447.19,191.38,450.41,188.29,453.44,186.42Z"/><path class="cls-1" d="M62,156c-12.6,9.56-12.64,12.2-1.48,21.27C71,185.82,70.83,187.67,59.41,195c-4.33,2.79-8.64,5.62-12.79,8.66-4,2.93-7.34,6.36-4.87,13.33-7.77-3.1-14.59-5.28-20.88-8.49-6.47-3.31-6.91-6.63-3.46-12.89,4-7.22,5-14.62,1.37-22.44-3-6.43-1.71-9.38,4.69-12.23,9-4,18.17-7.57,28.27-7C54.8,154.2,57.82,155.18,62,156Z"/></svg>