<svg id="bottom-panel" xmlns="http://www.w3.org/2000/svg" viewBox="0 0 465 232"><defs><style>.cls-1{fill:none;stroke:#231f20;stroke-miterlimit:10;}</style></defs><title>air_max_90_bottom_panel_Air Max Bottom-panel</title><path class="cls-1" d="M423.22,194.35c-9.17.36-17.8,1.29-26.38.95-31-1.24-62-2.14-92.82-4.71-18-1.5-35.69-6.22-53.6-9-16.42-2.59-33-3.9-49.42-6.89-11.21-2.05-22.18-5.69-33.07-9.21-21.16-6.85-42.53-12.08-65-11.51-5.81.15-11.65-.79-17.46-.61-6.41.21-12.8,1.17-19.21,1.74-1,.09-2.36.24-3.12-.27-7.31-4.95-15.27-4.36-23.11-2.32-7,1.83-13.86,4.54-21.36,7.06A9.28,9.28,0,0,1,17.1,157c-1.14-3.81-2-7.69-3.05-11.53-2.71-10.19.67-16.56,10.23-22,12.26-6.91,23.31-16,34.84-24.15,8.67-6.16,18.17-7,27.49-2.78,41.21,18.83,85.17,29.07,128.3,42,19.42,5.8,38.51,12.73,57.55,19.7A113,113,0,0,0,311.61,165c22.81,0,45.62-.8,68.43-.83a58.41,58.41,0,0,1,28.79,7.14C417.39,176,422.54,183.11,423.22,194.35ZM155.63,155.42c5.13-.58,9.27-2.18,15.69-7.59,2-1.66,4.31-4.72,4-6.73s-3.55-4.18-6-5c-12.69-4.44-25.94-7.51-38.19-12.89-16.36-7.18-28.09,2.21-40.61,9.2-3.69,2.06-3.07,5.73.69,7.9a19,19,0,0,0,5.13,1.79q14.55,3.43,29.13,6.72C135.53,151.05,145.59,153.22,155.63,155.42Z"/></svg>