<svg id="Layer_1" data-name="Layer 1" xmlns="http://www.w3.org/2000/svg" viewBox="0 0 447.61 223.37"><defs><style>.cls-1{fill:#fff;}</style></defs><title>air_max_90_outline_complete</title><g id="outline"><path id="Black_outline" data-name="Black outline" d="M412.58,204.77c-1.32,2.57-4.11,3.69-8.32,3.78-3.3.07-6.48,2.63-9.85,3.66s-7,2.53-10.1-1.3c-.29-.36-3.9.8-4.12,1.7-.8,3.26-2.88,4.25-5.72,4.6a12,12,0,0,0-2.48.28c-10.26,3.6-19.22,2.45-25.8-8-2.87,4.37-5.07,8.08-7.66,11.47a6.24,6.24,0,0,1-4.19,2,90.26,90.26,0,0,1-14.47-.08c-2.17-.24-4.5-1.87-6.13-3.5-2.75-2.75-4.78-2.41-7.48,0a10.43,10.43,0,0,1-5.82,2.79c-8.64.49-17.31.54-26,.74-.33,0-.82.18-1,0-5.41-5.7-11.14-.2-16.7-.41-6.31-.25-12.66.39-19,.19-2.2-.07-4.31-1.76-6.56-2.26-3.29-.74-8.37-2.68-9.7-1.28-4,4.27-8.67,2.8-13.07,3.08-4.14.26-8.92,1.47-11.14-4-5.61,6-18.79,5.86-22.57-.46-4.54,7.49-12.21,5.37-17.79,3.91-4.21-1.11-6.22-1.94-10.77,0-4.18,1.75-11.46,3.6-15.88-2.61-.3-.42-2-.09-2.93.21-2.18.7-4.27,2.2-6.44,2.29-6.82.3-13.66.1-20.49.08-3.1,0-5.79.13-8.35-3-1.19-1.45-5.87-.24-8.92.14-1.61.2-3.15,1.82-4.68,1.76-19.69-.75-39.12-3.44-58-9.33a57.85,57.85,0,0,1-14.69-7.11C.61,200.66.23,196,3.47,190.64c4.23-7,5.09-14.22,1.52-21.87-.94-2-1.86-5-1-6.66,2.24-4.26-.48-7.36-1.12-11C1.43,142.82-.28,134.34,0,126A272.28,272.28,0,0,1,11,60.29a79.33,79.33,0,0,1,7.2-16.87,11.08,11.08,0,0,1,7.37-4.91c14.15-1.42,27.63-.33,37.5,12.17,3.07,3.88,7.3,6.82,10.72,10.46,14.15,15.09,31.52,12,45.72,4.55A40.08,40.08,0,0,0,124,62.63c12.17-8.7,24.33-17.42,36.74-26.32-3.18-4.63-1.74-8.67,1-12.55,4.05-5.68,7.7-11.73,12.27-17,7.61-8.73,14.08-8.9,22.65-1.13,11.72,10.63,23,21.73,35,32.1,21.41,18.61,44.76,34.61,68.61,49.88,22.85,14.65,48.1,23,74.12,29.76,17.36,4.51,34.47,10,51.75,14.82,9.5,2.67,15.49,8.87,18.53,17.95,3.44,10.25,3.77,20.35,1.48,31.31-2.09,10-9.5,13.42-16.16,17.67a47.72,47.72,0,0,1-10,4.7C418,204.53,415.61,204.42,412.58,204.77Zm-.36-15.09c-.67-11.24-5.82-18.31-14.39-23.08A58.41,58.41,0,0,0,369,159.46c-22.81,0-45.62.83-68.43.83a113,113,0,0,1-39.14-6.72c-19-7-38.13-13.9-57.55-19.7-43.13-12.88-87.09-23.12-128.3-42-9.33-4.26-18.83-3.38-27.49,2.78-11.53,8.19-22.58,17.25-34.84,24.15C3.69,124.19.3,130.56,3,140.8c1,3.84,1.92,7.72,3,11.53a9.28,9.28,0,0,0,1.61,2.57c7.5-2.52,14.32-5.23,21.36-7.06,7.84-2,15.8-2.63,23.11,2.32.76.51,2.08.36,3.12.27,6.41-.57,12.79-1.53,19.21-1.74,5.81-.19,11.65.75,17.46.61,22.47-.57,43.84,4.67,65,11.51C167.82,164.33,178.79,168,190,170c16.33,3,33,4.31,49.38,6.87,17.91,2.79,35.61,7.51,53.6,9,30.86,2.58,61.86,3.47,92.82,4.71,8.61.38,17.24-.55,26.41-.91ZM230.54,215.93c-2.56-4.7-3.88-8.93-6.61-11.82-9.58-10.17-19.61-19.91-29.57-29.71a9.14,9.14,0,0,0-4-1.76q-15.12-4.07-30.28-8c-14.94-3.85-29.7-9-44.89-11.08-16.55-2.3-33.49-2.15-50.27-2.28-4.89,0-10,2.11-14.64,4.19-8,3.61-8.27,7.53-1.59,13.09.9.75,1.77,1.52,2.67,2.26,11.8,9.71,11.52,13.14-1.53,21.59a147.93,147.93,0,0,0-14.66,10.33c-4.71,3.94-3.91,6.84,1.9,9.65a11,11,0,0,0,3.35,1q18.25,2.42,36.51,4.69c1,.12,2.64.31,2.89-.14,3.1-5.63,8.2-1.92,12.29-2.73.84-.17,2.6.33,2.63.65.46,4.64,4,3.17,6.48,3.22,6.66.13,13.33.09,20,0a5.3,5.3,0,0,0,3.47-1c3-3.13,5.17-1.92,8.71-.15s8.69.89,13.12,1.15c1.26-6.08,5.89-2.62,7.67-3.12,2.15,1.67,3.71,3.74,4.68,3.49,4.35-1.11,10.64,3.72,13-4h6.41c-1.12,4.22,1.33,4.59,4.46,4.41,2.49-.14,5,.16,7.49,0,1-.07,2.73-.7,2.84-1.31.78-4.43,3.94-2.86,6.19-2.29,2,1.78,4.15,3.52,6.33,3.54,4.21,0,8.9,0,12.42-1.83,1.76-.92,3.2-1.95,5.25-1.93Zm-5.79-78.34c.92.33,5.54,2.46,7.87,3.23,14.66,4.85,29.06,11,44.07,14.2,21.91,4.7,44.39,3.55,66.72,2.56,10.62-.47,21.34-1,31.89-.12,20.36,1.79,37.18,10.63,39.8,30.27,0,.25.44.45,1,1,5.26-1.13,10.91-1.92,16.24-3.67a16.48,16.48,0,0,0,7.46-5.47c8.6-11.33,5.12-32.53-5.25-40-4.8,1.85-8.74,4.11-12.93,4.81-6,1-12.25,1-18.4,1.18-22.31.64-44.62,1-66.92,1.81-11.3.39-22.57,1.79-33.86,1.93-13.06.16-24.56-4-32.81-14.89-6-8-12-16-18.09-23.86-10.32-13.36-14.46-27.28-4-42.78l-4.72-3.18A45.47,45.47,0,0,1,239,68.67c-2.34,1.95-4.63,5.19-8.13,2.95S229.36,66,230.32,63c.41-1.25,1.41-2.36,1.61-3.62.14-.88-.65-1.9-1.2-3.32-8.34,12-14.93,14.2-26.31,9.38a37.65,37.65,0,0,1-6.18-3.21c-9-6-18.07-11.9-26.86-18.2s-8.65-6.49-17.06.16a6,6,0,0,0-.86,1.16,75.23,75.23,0,0,1,5.27,6.19c5.9,8.62,12.18,17,17.28,26.12,3.41,6.07,1.51,10.39-4.67,13.66a78.45,78.45,0,0,1-13,5c-4,1.29-8.26,2.06-12.39,3.06,6.8,1.51,13.51,2.44,20.23,3.33,11.71,1.55,23.39,3.42,35.15,4.51,9.49.88,13.84-5.23,10.89-14.33-.69-2.13-1.52-4.21-2.71-7.47,11.32,6.32,20.83,12.76,26.74,23.32,3.66,7.68,3.11,13.13-1.83,20.92C231.6,134.22,227.75,136.05,224.75,137.59Zm217.69,44.17c-3,1.87-6.25,5-10,5.94-8.17,2.14-16.59,4.31-25,4.51-20.94.5-41.92.26-62.86-.36-17-.5-34-1-50.8-3.26-23.21-3.07-46.2-7.79-69.3-11.68-8.71-1.47-17.48-2.59-25.35-3.74,7.24,7.76,14.7,15.56,21.92,23.56,5,5.54,10,11.09,11.22,19,.28,1.84.79,4.86,4.64,4.64,7.47-.43,15-.14,22.47-.37a5,5,0,0,0,3.51-1.85c2.33-3.55,7.14-2,7.5-.93,1.53,4.41,4.72,3,7.38,3q10,0,20-.48c2.69-.13,6.39,1.14,6.79-3.64,0-.33,1.42-.81,2.15-.76,3.63.22,8.17-1.9,9.86,3.7a2.61,2.61,0,0,0,2,1.16c5.32.12,10.65.12,16,.08a2.37,2.37,0,0,0,1.72-.76,108.27,108.27,0,0,0,6-9.24c2-3.57,4.88-3.51,6.64-.72,2.11,3.34,7.75,2.25,8.22,7.19,0,.24,1.52.6,2.26.47,5.84-1.05,11.67-2.21,17.48-3.33l.69-5.77c3,0,6.51-1.08,8.45.22,4.5,3,11.37,1.95,14-2.89.41-.77,2.82-1.48,3.28-1.07,3.55,3.18,5.29,1.92,7-1.92.43-1,3.55-1.66,4.79-1.09,3.31,1.52,4.86,0,6.83-2.23,1.06-1.21,3.13-1.53,4.76-2.24a26.41,26.41,0,0,0,4.07-1.76,51.8,51.8,0,0,0,4.5-3.67c1.51-.39,2.1-3,2.86-3.05C443.79,188,442.06,183.88,442.44,181.76ZM2.57,121.34,4,122.63c13.34-9.29,27-18,39.87-27.94,9.64-7.46,19.52-9.19,30.85-6,5.24,1.48,10.55,2.79,15.89,3.81s10.84,1.75,16.3,2.33c13.48,1.44,26.89,5.47,40.54,1.43,7.46-2.2,15-4.28,22.25-7,3.7-1.39,6.47-4.28,4.64-9.06C169.31,67,159.93,57,150.92,46.56c-9.5,6.8-18.39,13.24-27.36,19.56C106,78.47,86.79,77.05,71.46,62.4,66.88,58,62,53.9,57.74,49.27c-9.28-10-21.06-9.17-32.91-8-1.67.17-3.2,1.83-4.79,2.8,8.81-1.1,12.35,0,18.25,6.41,2.37,2.58,4.71,5.17,6.91,7.86,7.26,9.15,7,14.54-1.18,23-1,1.08-2.18,2.06-3.29,3.07-11.48,10.39-23,20.73-34.41,31.23C4.71,117.17,3.81,119.44,2.57,121.34Zm353.57-6.55c-2.41,5.88-6.63,8.33-11.9,8.81-4.44.41-9,.91-13.4.22-12.79-2-25.48-4.69-38.24-7a10.56,10.56,0,0,0-5.67.38c-6.81,2.9-13.48,6.13-20.17,9.23,7.14,11.44,15.35,17.57,27.67,19.38a75.12,75.12,0,0,0,18.41.67c30.21-3.12,60.48-3.72,90.81-3.42a129.33,129.33,0,0,0,16.45-1c4-.47,8.27-.87,11.23-6ZM91.49,95.34l-.28,1c9.5,3.31,18.9,6.95,28.51,9.88,33.2,10.14,66.47,20,99.72,30a5.52,5.52,0,0,0,2.84.29c10.93-3,17-17.37,11.41-27.19-4.31-7.56-11-12.69-18.6-17.61a23.94,23.94,0,0,0,.18,2.51c2,9.78-4.27,17.14-14.08,15.9-22.93-2.91-45.82-6.15-68.73-9.25ZM51,151.34c-4.13-.84-7.15-1.82-10.21-2-10.1-.61-19.27,2.95-28.27,7-6.4,2.85-7.66,5.8-4.69,12.23,3.61,7.82,2.62,15.22-1.37,22.44-3.45,6.25-3,9.58,3.46,12.89,6.29,3.21,13.11,5.39,20.88,8.49-2.48-7,.87-10.39,4.87-13.33,4.15-3,8.46-5.88,12.79-8.66C59.88,183,60,181.19,49.52,172.65,38.31,163.55,38.35,160.91,51,151.34ZM3.2,113.1l1.19.48c.75-.56,1.55-1.07,2.24-1.69,11.22-10.15,22.5-20.27,33.67-30.55a40.63,40.63,0,0,0,5.77-6.83c2.52-3.64,2.72-7.45-.27-11-3.41-4.09-6.67-8.32-10.35-12.17-7.71-8-17.09-6.12-20.32,4.45C12.22,65.34,10,75.07,8,84.81c-2,9.37-3.26,18.86-4.84,28.3ZM250.42,69.92c-5.6,6-7.4,13.06-5.82,21,2.34,11.8,11,19.88,17,29.56,1.72,2.79,3.8,3.56,6.63,2.07,11.28-5.92,22.57-11.85,33.79-17.9a11.47,11.47,0,0,0,3.14-3.17c3-3.81,2.55-5.81-2-8.78-1,1.43-2,2.95-3.2,4.31s-2.31,3.12-3.85,3.8c-1.76.78-4.66,1.47-5.79.57-1.42-1.12-2.21-3.93-2-5.91.19-2.28,1.72-4.45,2.66-6.64-8.2-4.05-8.2-4-14.21,1.52-.73.67-1.47,1.61-2.34,1.8-1.65.35-4,1-5,.16a6.27,6.27,0,0,1-1.78-5c.4-2.54,1.84-4.92,3-7.61l-8.86-4.46c-2.78,2.61-5,5.14-7.69,7a5.29,5.29,0,0,1-4.89.16c-1.1-.79-1.73-3.2-1.47-4.71C248.16,75,249.47,72.51,250.42,69.92Zm-43.1-50.78c-4.39-4.08-8.55-8.11-12.89-11.95-7.07-6.25-12.24-6.21-18.31,1A172.35,172.35,0,0,0,163,27c-1.16,1.84-.87,4.6-1.43,8.08,13-5.1,24.49-7.28,35.92-1.25ZM221.4,51c-2.38,2.15-4.17,4.18-6.37,5.58a5.34,5.34,0,0,1-4.53.39c-1.06-.61-1.72-2.84-1.53-4.22.35-2.55,1.45-5,2.31-7.7l-5.94-3.4.13,1.33-8.87,2.33-1.74-9.44c-6.52-4.71-19.94-4.68-29.36,1.39,12.69,8.37,25,16.57,37.38,24.57a23.85,23.85,0,0,0,7,2.61c8.22,2.12,14.65-1.45,17.59-9.77Zm88.78,45.73c-2.23,9.4-10.54,12.26-17.39,17.32,2.75.73,4.81,1.37,6.91,1.82,13.82,3,27.61,6.32,41.92,5.46,4.76-.28,9.21-1.37,11.61-6.71l-23-8.48c-3,3.42-3.78,10.75-10.11,8-6.5-2.81-2.24-8.51-1.22-13.2Zm-70.85-49L229,39l-6.18,9.74L234,55.58Zm-23.9-20.71-8.28,12.62L212.92,43l7.65-11.25Zm36.8,40.46,4.41-6.42L249,55.25l-4.68,7.18ZM275,74.09l-9-6.27-3,4.72C271.66,78.09,271.69,78.1,275,74.09Z"/><g id="eyelet"><path d="M256.06,91.8c1.58,2.17,3.21,3.45,3.23,4.74,0,1.07-1.89,2.17-2.94,3.25-1.14-1.13-2.89-2.1-3.23-3.43C252.88,95.41,254.56,94,256.06,91.8Z"/><path d="M281.45,104.15c-1.92,1.55-3.09,3.22-4.2,3.19s-2.32-1.69-3.47-2.64c1.07-1.2,2-3,3.28-3.39C277.93,101,279.41,102.76,281.45,104.15Z"/></g><path d="M123.31,202c-13.64,0-25.6-1.27-39.24-1.5-4.12-.07-7.36-2.2-7.81-6.88-.52-5.35,1.67-8.95,6.51-10.35a24.38,24.38,0,0,1,6.37-.9c5.49-.07,11,0,16.48.13q27.47.43,54.94.91c8.1.15,12.4,3.85,12.1,10.33a8.32,8.32,0,0,1-6.38,7.69,21.44,21.44,0,0,1-4.82.55H125Zm1.69-2.63h37.9c4.05,0,7.37-1.08,7.89-5.73.46-4.07-2.62-6.91-7.65-7.34-.33,0-.66-.05-1-.06-24.27-.4-48.54-.83-72.81-1.15-2.11,0-4.83,0-6.18,1.21-1.85,1.66-3.43,2.89-3.61,5.29-.11,1.46,2.41,5.08,4.19,6.11,1.44.83,3.54.63,5.35.63C101.06,198.34,113,199.34,125,199.34Z"/><path d="M144.63,150.76c-10-2.2-20.1-4.37-30.13-6.62q-14.58-3.28-29.13-6.72a19,19,0,0,1-5.13-1.79c-3.75-2.17-4.37-5.84-.69-7.9,12.52-7,24.25-16.38,40.61-9.2,12.25,5.38,25.5,8.45,38.19,12.89,2.4.84,5.63,3,6,5s-2,5.07-4,6.73C153.9,148.58,149.77,150.18,144.63,150.76Zm-64.85-20v1.73A43.43,43.43,0,0,0,85.94,135c16,3.79,32.1,7.29,48.09,11.21,9.52,2.33,18.07,1.51,25.49-5.51,3.56-3.37,3.47-5-1.15-6.53-15.45-5.14-30.88-10.41-46.51-15-3.62-1.06-8.24-.19-12,1-5.16,1.71-10,4.55-14.84,7.05a52.11,52.11,0,0,0-5.24,3.57Z"/></g><g id="sole_center" data-name="sole center"><path class="cls-1" d="M230.54,215.93h-7.26c-2,0-3.49,1-5.25,1.93-3.52,1.85-8.22,1.87-12.42,1.83-2.18,0-4.34-1.76-6.33-3.54-2.25-.57-5.41-2.14-6.19,2.29-.11.61-1.83,1.24-2.84,1.31-2.49.16-5-.14-7.49,0-3.13.18-5.58-.19-4.46-4.41h-6.41c-2.35,7.77-8.64,2.93-13,4-1,.25-2.53-1.82-4.68-3.49-1.78.51-6.41-3-7.67,3.12-4.43-.27-9.47.68-13.12-1.15s-5.75-3-8.71.15a5.3,5.3,0,0,1-3.47,1c-6.66.09-13.33.13-20,0-2.52-.05-6,1.41-6.48-3.22,0-.32-1.79-.82-2.63-.65-4.09.81-9.19-2.9-12.29,2.73-.25.45-1.91.26-2.89.14q-18.25-2.23-36.5-4.63a11,11,0,0,1-3.35-1c-5.81-2.81-6.62-5.71-1.9-9.65a147.93,147.93,0,0,1,14.65-10.35c13-8.45,13.33-11.88,1.53-21.59-.9-.74-1.77-1.52-2.67-2.26C42,162.94,42.31,159,50.3,155.4c4.61-2.08,9.75-4.22,14.64-4.19,16.78.13,33.72,0,50.27,2.28,15.18,2.11,30,7.23,44.89,11.08q15.17,3.91,30.28,8a9.14,9.14,0,0,1,4,1.76c10,9.8,20,19.54,29.57,29.71C226.66,207,228,211.23,230.54,215.93ZM125,202h36.45a21.43,21.43,0,0,0,4.82-.55,8.31,8.31,0,0,0,6.38-7.68c.31-6.48-4-10.19-12.1-10.34q-27.47-.49-54.94-.91c-5.49-.09-11-.21-16.48-.13a24.38,24.38,0,0,0-6.37.9c-4.85,1.4-7,5-6.51,10.35.46,4.68,3.69,6.81,7.81,6.88C97.71,200.7,111.36,202,125,202Z"/></g><g id="sole"><path class="cls-1" d="M442.44,181.76c-.38,2.12,1.35,6.28-4.29,6.63-.76,0-1.35,2.66-2.86,3.05a51.8,51.8,0,0,1-4.5,3.67,26.41,26.41,0,0,1-4.07,1.76c-1.62.7-3.69,1-4.76,2.24-2,2.24-3.52,3.76-6.83,2.23-1.24-.57-4.36.13-4.79,1.09-1.74,3.84-3.49,5.09-7,1.92-.46-.41-2.87.3-3.28,1.07-2.59,4.84-9.45,5.88-14,2.89-2-1.29-5.47-.22-8.45-.22l-.69,5.77c-5.81,1.12-11.64,2.28-17.48,3.33-.73.13-2.23-.23-2.26-.47-.47-4.94-6.11-3.85-8.22-7.19-1.76-2.78-4.63-2.84-6.64.72-1.8,3.2-3.93,6.21-6,9.24a2.37,2.37,0,0,1-1.72.76c-5.33,0-10.65,0-16-.08a2.61,2.61,0,0,1-2-1.16c-1.7-5.6-6.23-3.48-9.86-3.7-.73,0-2.13.44-2.15.76-.4,4.78-4.1,3.52-6.79,3.64q-10,.47-20,.48c-2.66,0-5.85,1.45-7.38-3-.36-1-5.17-2.62-7.5.93a5,5,0,0,1-3.51,1.85c-7.49.22-15-.07-22.47.37-3.84.22-4.35-2.8-4.64-4.64-1.23-7.94-6.22-13.49-11.22-19-7.22-8-14.68-15.8-21.92-23.56,7.87,1.15,16.64,2.28,25.35,3.74,23.1,3.89,46.09,8.61,69.3,11.68,16.79,2.22,33.84,2.76,50.8,3.26,20.94.62,41.92.86,62.86.36,8.36-.2,16.78-2.36,25-4.51C436.19,186.72,439.41,183.63,442.44,181.76Z"/><path class="cls-1" d="M51,151.34c-12.6,9.56-12.64,12.2-1.48,21.27C60,181.16,59.83,183,48.41,190.34c-4.33,2.79-8.64,5.62-12.79,8.66-4,2.93-7.34,6.36-4.87,13.33-7.77-3.1-14.59-5.28-20.88-8.49C3.4,200.53,3,197.21,6.41,191c4-7.22,5-14.62,1.37-22.44-3-6.43-1.71-9.38,4.69-12.23,9-4,18.17-7.57,28.27-7C43.8,149.54,46.82,150.52,51,151.34Z"/></g><g id="air-pocket"><path class="cls-1" d="M125,199.34c-12,0-23.94-1-35.91-1-1.81,0-3.92.19-5.35-.63-1.78-1-4.3-3.11-4.19-4.57a11.25,11.25,0,0,1,3.61-6.83c1.35-1.21,4.08-1.24,6.18-1.21,24.27.32,48.54.75,72.81,1.15a5.65,5.65,0,0,1,1,.06c5,.43,8.1,3.27,7.65,7.34-.52,4.66-3.84,5.74-7.89,5.73H125Z"/></g><g id="bottom-panel"><path class="cls-1" d="M412.22,189.69c-9.17.36-17.8,1.29-26.38.95-31-1.24-62-2.14-92.82-4.71-18-1.5-35.69-6.22-53.6-9C223,174.34,206.37,173,190,170c-11.21-2.05-22.18-5.69-33.07-9.21-21.16-6.85-42.53-12.08-65-11.51-5.81.15-11.65-.79-17.46-.61-6.41.21-12.8,1.17-19.21,1.74-1,.09-2.36.24-3.12-.27-7.31-4.95-15.27-4.36-23.11-2.32-7,1.83-13.86,4.54-21.36,7.06a9.28,9.28,0,0,1-1.57-2.58C5,148.53,4.1,144.65,3,140.81c-2.71-10.19.67-16.56,10.23-22,12.26-6.91,23.31-16,34.84-24.15,8.67-6.16,18.17-7,27.49-2.78,41.21,18.83,85.17,29.07,128.3,42,19.42,5.8,38.51,12.73,57.55,19.7a113,113,0,0,0,39.15,6.76c22.81,0,45.62-.8,68.43-.83a58.41,58.41,0,0,1,28.79,7.14C406.39,171.34,411.54,178.45,412.22,189.69ZM144.63,150.76c5.13-.58,9.27-2.18,15.69-7.59,2-1.66,4.31-4.72,4-6.73s-3.55-4.18-6-5c-12.69-4.44-25.94-7.51-38.19-12.89-16.36-7.18-28.09,2.21-40.61,9.2-3.69,2.06-3.07,5.73.69,7.9a19,19,0,0,0,5.13,1.79q14.55,3.43,29.13,6.72C124.53,146.39,134.59,148.56,144.63,150.76Z"/></g><g id="max-inset"><path class="cls-1" d="M79.78,130.74a52.11,52.11,0,0,1,5.22-3.5c4.88-2.51,9.68-5.34,14.84-7.05,3.74-1.24,8.36-2.1,12-1,15.63,4.56,31.05,9.83,46.51,15,4.62,1.54,4.71,3.16,1.15,6.53-7.42,7-16,7.84-25.49,5.51-16-3.91-32.07-7.42-48.09-11.21a43.43,43.43,0,0,1-6.16-2.46Z"/></g><g id="heel-insert"><path class="cls-1" d="M3.16,113.11C4.74,103.67,6,94.18,8,84.81c2-9.75,4.23-19.5,7.14-29,3.22-10.57,12.6-12.47,20.31-4.47,3.68,3.83,6.94,8.07,10.35,12.15,3,3.59,2.79,7.4.27,11a40.63,40.63,0,0,1-5.77,6.85c-11.17,10.28-22.45,20.4-33.71,30.55-.69.63-1.49,1.13-2.24,1.69Z"/></g><g id="heel-upper"><path class="cls-1" d="M2.57,121.34c1.24-1.91,2.14-4.18,3.76-5.68,11.39-10.5,22.92-20.84,34.41-31.23,1.11-1,2.25-2,3.29-3.07,8.14-8.45,8.44-13.83,1.18-23C43,55.62,40.67,53,38.3,50.47,32.4,44.05,28.86,43,20,44.06c1.59-1,3.12-2.63,4.79-2.8,11.85-1.18,23.63-2,32.91,8C62,53.89,66.89,58,71.47,62.39,86.8,77.05,106,78.46,123.57,66.12c9-6.32,17.86-12.76,27.36-19.56C159.93,57,169.28,67,174.32,80.2c1.83,4.78-.94,7.67-4.64,9.06-7.27,2.73-14.79,4.8-22.25,7-13.65,4-27.06,0-40.54-1.43-5.45-.58-10.91-1.31-16.3-2.33S79.94,90.17,74.7,88.7c-11.34-3.19-21.22-1.47-30.85,6C31,104.62,17.31,113.34,4,122.63Z"/></g><g id="lace-insert"><path class="cls-1" d="M221.41,51l6,3.72c-2.94,8.32-9.36,11.9-17.59,9.77a23.85,23.85,0,0,1-7-2.61c-12.41-8-24.69-16.2-37.38-24.57,9.42-6.07,22.85-6.11,29.36-1.39l1.8,9.4L205.47,43l-.13-1.33,5.94,3.4c-.86,2.71-2,5.16-2.31,7.7-.19,1.38.5,3.59,1.53,4.22s3.34.36,4.53-.39C217.23,55.21,219,53.17,221.41,51Z"/><path class="cls-1" d="M310.19,96.76l8.7,4.23c-1,4.69-5.28,10.39,1.22,13.2,6.33,2.74,7.13-4.59,10.11-8l23,8.48c-2.4,5.34-6.85,6.42-11.61,6.71-14.31.86-28.1-2.47-41.92-5.46-2.1-.46-4.16-1.09-6.91-1.82C299.65,109,308,106.16,310.19,96.76Z"/></g><g id="top-panel"><path class="cls-1" d="M227.08,138.83l7.35-9.07c5.21-6.56,5.93-13.6,1.83-20.92-5.91-10.56-15.43-17-26.74-23.32,1.19,3.27,2,5.35,2.71,7.47,2.95,9.1-1.39,15.21-10.89,14.33-11.75-1.09-23.44-3-35.15-4.51-6.72-.89-13.43-1.82-20.23-3.33,4.14-1,8.35-1.77,12.39-3.06a78.45,78.45,0,0,0,13-5c6.18-3.27,8.08-7.59,4.67-13.66-5.1-9.08-11.38-17.5-17.28-26.12a75.23,75.23,0,0,0-5.27-6.19,6,6,0,0,1,.86-1.16c8.41-6.65,8.28-6.45,17.06-.16s17.85,12.21,26.86,18.2a37.65,37.65,0,0,0,6.18,3.21c11.38,4.82,18,2.6,26.31-9.38.55,1.42,1.33,2.44,1.2,3.32-.19,1.26-1.19,2.37-1.61,3.62-1,2.93-3,6.29.55,8.58s5.79-1,8.13-2.95a45.47,45.47,0,0,0,3.88-4.13l4.72,3.18c-10.46,15.5-6.33,29.42,4,42.78,6.1,7.9,12.06,15.91,18.09,23.86,8.25,10.87,19.75,15,32.81,14.89,11.29-.14,22.56-1.54,33.86-1.93,22.3-.76,44.62-1.17,66.92-1.81,6.15-.18,12.37-.18,18.4-1.18,4.19-.69,8.13-3,12.93-4.81,10.37,7.51,13.85,28.7,5.25,40a16.48,16.48,0,0,1-7.46,5.47c-5.33,1.75-11,2.54-16.24,3.67-.58-.54-1-.74-1-1-2.63-19.63-19.44-28.48-39.8-30.27-10.55-.93-21.27-.35-31.89.12-22.34,1-44.81,2.14-66.72-2.56-15-3.22-29.41-9.35-44.07-14.2C230.29,140.05,228,139.16,227.08,138.83Z"/></g><g id="mid-lace-panel"><path class="cls-1" d="M250.42,69.92c-1,2.59-2.26,5.11-2.73,7.79-.27,1.51.37,3.92,1.47,4.71a5.29,5.29,0,0,0,4.89-.16c2.69-1.86,4.91-4.39,7.69-7l8.86,4.46c-1.1,2.69-2.54,5.07-3,7.61a6.27,6.27,0,0,0,1.78,5c1,.8,3.31.2,5-.16.87-.19,1.61-1.12,2.34-1.8,6-5.57,6-5.57,14.21-1.52-.94,2.19-2.47,4.36-2.66,6.64-.17,2,.63,4.8,2,5.91,1.13.89,4,.21,5.79-.57,1.55-.69,2.68-2.42,3.85-3.8s2.15-2.88,3.2-4.31c4.58,3,5,5,2,8.78a11.47,11.47,0,0,1-3.14,3.17c-11.22,6-22.5,12-33.79,17.9-2.84,1.49-4.91.72-6.63-2.07-6-9.68-14.68-17.76-17-29.56C243,83,244.82,75.94,250.42,69.92Zm5.64,21.88c-1.5,2.19-3.18,3.62-2.94,4.55.34,1.33,2.08,2.31,3.23,3.43,1-1.08,3-2.17,2.94-3.25,0-1.29-1.65-2.56-3.23-4.73Zm25.39,12.36c-2-1.4-3.52-3.11-4.39-2.85-1.32.4-2.21,2.19-3.28,3.39,1.15.95,2.29,2.6,3.47,2.64s2.27-1.64,4.2-3.19Z"/></g><g id="toe-cap"><path class="cls-1" d="M356.14,114.8l75.19,21.34c-3,5.14-7.26,5.54-11.23,6a129.33,129.33,0,0,1-16.45,1c-30.33-.3-60.6.31-90.81,3.42a75.12,75.12,0,0,1-18.41-.67c-12.31-1.81-20.52-7.94-27.67-19.38,6.69-3.09,13.36-6.33,20.17-9.23a10.56,10.56,0,0,1,5.67-.38c12.76,2.26,25.45,4.92,38.24,7,4.35.69,9,.19,13.4-.22C349.51,123.12,353.73,120.68,356.14,114.8Z"/></g><g id="tounge"><path class="cls-1" d="M275,74.09c-3.29,4-3.32,4-12-1.55l3-4.72Z"/><path class="cls-1" d="M252.23,67.46l-7.91-5L249,55.25,256.64,61Z"/><path class="cls-1" d="M215.44,27l5.15,4.64-7.65,11.25-5.77-3.28Z"/><path class="cls-1" d="M239.34,47.71,234,55.58l-11.28-6.8L229,39Z"/><path class="cls-1" d="M207.32,19.14l-9.85,14.67c-11.43-6-22.94-3.85-35.92,1.25.56-3.48.27-6.24,1.43-8.08A172.35,172.35,0,0,1,176.12,8.24c6.07-7.25,11.24-7.29,18.31-1C198.77,11,202.94,15.06,207.32,19.14Z"/></g><g id="swoosh"><path class="cls-1" d="M91.49,95.34l41,5.53c22.91,3.1,45.8,6.34,68.73,9.25,9.81,1.24,16.07-6.12,14.08-15.9a23.94,23.94,0,0,1-.18-2.51c7.63,4.92,14.29,10.05,18.6,17.61,5.6,9.81-.48,24.19-11.41,27.19a5.52,5.52,0,0,1-2.84-.29c-33.25-10-66.52-19.87-99.72-30-9.61-2.94-19-6.57-28.51-9.88Z"/></g></svg>