<svg id="tounge" xmlns="http://www.w3.org/2000/svg" viewBox="0 0 465 232"><defs><style>.cls-1{fill:none;stroke:#231f20;stroke-miterlimit:10;}</style></defs><title>air_max_90_tongue_Air Max Tongue</title><path class="cls-1" d="M286,78.75c-3.29,4-3.32,4-12-1.55l3-4.72Z"/><path class="cls-1" d="M263.23,72.12l-7.91-5L260,59.91l7.64,5.78Z"/><path class="cls-1" d="M226.44,31.66l5.15,4.64-7.65,11.25-5.77-3.28Z"/><path class="cls-1" d="M250.34,52.37,245,60.24l-11.28-6.8L240,43.7Z"/><path class="cls-1" d="M218.32,23.8l-9.85,14.67c-11.43-6-22.94-3.85-35.92,1.25.56-3.48.27-6.24,1.43-8.08A172.35,172.35,0,0,1,187.12,12.9c6.07-7.25,11.24-7.29,18.31-1C209.77,15.69,213.94,19.72,218.32,23.8Z"/></svg>