<svg id="top-panel" xmlns="http://www.w3.org/2000/svg" viewBox="0 0 465 232"><defs><style>.cls-1{fill:none;stroke:#231f20;stroke-miterlimit:10;}</style></defs><title>air_max_90_top-panel_Air Max Top-panel</title><path class="cls-1" d="M238.08,143.49l7.35-9.07c5.21-6.56,5.93-13.6,1.83-20.92-5.91-10.56-15.43-17-26.74-23.32,1.19,3.27,2,5.35,2.71,7.47,2.95,9.1-1.39,15.21-10.89,14.33-11.75-1.09-23.44-3-35.15-4.51-6.72-.89-13.43-1.82-20.23-3.33,4.14-1,8.35-1.77,12.39-3.06a78.45,78.45,0,0,0,13-5c6.18-3.27,8.08-7.59,4.67-13.66-5.1-9.08-11.38-17.5-17.28-26.12a75.23,75.23,0,0,0-5.27-6.19,6,6,0,0,1,.86-1.16c8.41-6.65,8.28-6.45,17.06-.16S200.24,61,209.25,67a37.65,37.65,0,0,0,6.18,3.21c11.38,4.82,18,2.6,26.31-9.38.55,1.42,1.33,2.44,1.2,3.32-.19,1.26-1.19,2.37-1.61,3.62-1,2.93-3,6.29.55,8.58s5.79-1,8.13-2.95a45.47,45.47,0,0,0,3.88-4.13l4.72,3.18c-10.46,15.5-6.33,29.42,4,42.78,6.1,7.9,12.06,15.91,18.09,23.86,8.25,10.87,19.75,15,32.81,14.89,11.29-.14,22.56-1.54,33.86-1.93,22.3-.76,44.62-1.17,66.92-1.81,6.15-.18,12.37-.18,18.4-1.18,4.19-.69,8.13-3,12.93-4.81,10.37,7.51,13.85,28.7,5.25,40a16.48,16.48,0,0,1-7.46,5.47c-5.33,1.75-11,2.54-16.24,3.67-.58-.54-1-.74-1-1-2.63-19.63-19.44-28.48-39.8-30.27-10.55-.93-21.27-.35-31.89.12-22.34,1-44.81,2.14-66.72-2.56-15-3.22-29.41-9.35-44.07-14.2C241.29,144.71,239,143.82,238.08,143.49Z"/></svg>