<svg id="heel-upper" xmlns="http://www.w3.org/2000/svg" viewBox="0 0 465 232"><defs><style>.cls-1{fill:none;stroke:#231f20;stroke-miterlimit:10;}</style></defs><title>air_max_90_heel-upper_Air Max Heel-upper</title><path class="cls-1" d="M13.57,126c1.24-1.91,2.14-4.18,3.76-5.68,11.39-10.5,22.92-20.84,34.41-31.23,1.11-1,2.25-2,3.29-3.07,8.14-8.45,8.44-13.83,1.18-23C54,60.28,51.67,57.7,49.3,55.13c-5.9-6.42-9.44-7.51-18.25-6.41,1.59-1,3.12-2.63,4.79-2.8,11.85-1.18,23.63-2,32.91,8,4.3,4.63,9.14,8.75,13.72,13.13,15.33,14.66,34.58,16.07,52.1,3.73,9-6.32,17.86-12.76,27.36-19.56,9,10.42,18.35,20.46,23.39,33.64,1.83,4.78-.94,7.67-4.64,9.06-7.27,2.73-14.79,4.8-22.25,7-13.65,4-27.06,0-40.54-1.43-5.45-.58-10.91-1.31-16.3-2.33s-10.65-2.33-15.89-3.8c-11.34-3.19-21.22-1.47-30.85,6C42,109.28,28.31,118,15,127.29Z"/></svg>