<svg id="sole_center" data-name="sole center" xmlns="http://www.w3.org/2000/svg" viewBox="0 0 465 232"><defs><style>.cls-1{fill:none;stroke:#231f20;stroke-miterlimit:10;}</style></defs><title>air_max_90_sole-center_Air Max Sole-center</title><path class="cls-1" d="M241.54,220.59h-7.26c-2,0-3.49,1-5.25,1.93-3.52,1.85-8.22,1.87-12.42,1.83-2.18,0-4.34-1.76-6.33-3.54-2.25-.57-5.41-2.14-6.19,2.29-.11.61-1.83,1.24-2.84,1.31-2.49.16-5-.14-7.49,0-3.13.18-5.58-.19-4.46-4.41h-6.41c-2.35,7.77-8.64,2.93-13,4-1,.25-2.53-1.82-4.68-3.49-1.78.51-6.41-3-7.67,3.12-4.43-.27-9.47.68-13.12-1.15s-5.75-3-8.71.15a5.3,5.3,0,0,1-3.47,1c-6.66.09-13.33.13-20,0-2.52-.05-6,1.41-6.48-3.22,0-.32-1.79-.82-2.63-.65-4.09.81-9.19-2.9-12.29,2.73-.25.45-1.91.26-2.89.14Q69.7,220.4,51.45,218a11,11,0,0,1-3.35-1c-5.81-2.81-6.62-5.71-1.9-9.65A147.93,147.93,0,0,1,60.85,197c13-8.45,13.33-11.88,1.53-21.59-.9-.74-1.77-1.52-2.67-2.26-6.68-5.55-6.4-9.48,1.59-13.09,4.61-2.08,9.75-4.22,14.64-4.19,16.78.13,33.72,0,50.27,2.28,15.18,2.11,30,7.23,44.89,11.08q15.17,3.91,30.28,8a9.14,9.14,0,0,1,4,1.76c10,9.8,20,19.54,29.57,29.71C237.66,211.66,239,215.89,241.54,220.59Z"/></svg>