<svg xmlns="http://www.w3.org/2000/svg" viewBox="0 0 413 114"><defs><style>.cls-1{font-size:26.1px;fill:#231f20;font-family:Code-Light, Code Light;letter-spacing:0.08em;}.cls-2{letter-spacing:0.1em;}.cls-3{letter-spacing:0.07em;}.cls-4{letter-spacing:0.05em;}.cls-5{letter-spacing:-0.03em;}.cls-6{letter-spacing:-0.03em;}.cls-7{fill:#ef4136;opacity:0.97;}.cls-7,.cls-8{fill-rule:evenodd;}.cls-8{fill:#1d1d1b;}</style></defs><title>sole_assista_header_Air Max Complete</title><g id="Subtitles"><text class="cls-1" transform="translate(125.37 106.93)">S<tspan class="cls-2" x="16.37" y="0">o</tspan><tspan x="39.05" y="0">le A</tspan><tspan class="cls-3" x="95.63" y="0">s</tspan><tspan class="cls-4" x="111.6" y="0">s</tspan><tspan x="127.03" y="0">i</tspan><tspan class="cls-5" x="138.46" y="0">s</tspan><tspan class="cls-6" x="151.95" y="0">t</tspan><tspan x="164.87" y="0">a</tspan></text></g><g id="swoosh_logo" data-name="swoosh logo"><path class="cls-7" d="M31.09,38C17.69,53.73,4.84,73.25,4.71,87.84c0,5.49,1.7,10.28,5.9,13.91A28.66,28.66,0,0,0,30,108.83c9.69,0,19.31-3.9,26.85-6.91,12.69-5.08,153-66,153-66,1.35-.68,1.1-1.52-.59-1.1C208.5,35,56.47,76.2,56.47,76.2a33.55,33.55,0,0,1-8.85,1.27c-11.68.07-22.08-6.42-22-20.08,0-5.35,1.67-11.8,5.46-19.38Z"/></g><g id="just_do_it" data-name="just do it"><path class="cls-8" d="M47.6,7.34H67.45l.45,48.9S68,68,60.95,73.84c-5.49,4.48-11.71,4.81-16.82,3.93a19.88,19.88,0,0,1-7.85-2.92V58a14.4,14.4,0,0,0,4.26,2.24c2.47.78,4.09,1.4,6.28-.79,1.12-1.12,1-4.71,1-4.71L47.6,7.34ZM68.73,54.55S66,78.44,93.18,78.44c25.13,0,23.76-22.58,23.76-24.78s-.22-46.42-.22-46.42H96.87L97,52.65s.56,7.07-4.26,7.07-4.15-6.62-4.15-6.62L88.24,7.35H68.4l.34,47.21ZM155.08,28,155,10.15s-8.36-4.27-17.21-4.27a20,20,0,0,0-17.15,8.92,21,21,0,0,0-3,15c1.06,5.64,3.17,8.7,7.75,13.21,2.09,2.06,6.08,5.28,7.13,6.34s4.72,3.34,4.14,7.13c-.38,2.48-1.76,4.19-6.43,4.05-5.9-.18-12.77-5.9-12.77-5.9l.09,18.23s7.84,5.71,16.21,5.55c9.34-.18,13.83-3.26,16.91-5.73,4.61-3.69,8.19-11.63,7-20.34S148.48,37.86,146.28,36s-7.13-5.46-8-7.49.79-5.28,2.64-5.55,4.92-1.77,14.17,5Zm.76-3.12h11.68v52h19.74v-52h11.11V7.31H155.84V24.86Zm193.76,0h11.67v52H381v-52h11.11V7.31H349.61V24.86ZM211.94,77h21.67c4.49,0,27.74-1.05,27.74-36,0-34.2-25.63-33.54-25.63-33.54H212.07L211.94,77ZM232,25.87s2.77-.26,4,.4,4.89,2.77,4.89,16.64-3,15.59-5,16.64a6,6,0,0,1-4,.53l.13-34.2ZM288.57,5.4S262,4.47,262,41.19c0,39.75,26.56,37.1,26.56,37.1S316,81.86,316,42,288.57,5.4,288.57,5.4Zm.13,17.17c1.85,0,6.34-1.32,6.34,19.41,0,20.33-5.29,18.48-6.21,18.48s-6.47,1.32-6.47-18.35c0-20.21,4.49-19.55,6.34-19.55Zm39.63,54.27h19.95V7.38H328.07l.26,69.46Zm54.31-9.64a11.24,11.24,0,0,0,11,11.14,10.89,10.89,0,0,0,11.2-11.19,11.27,11.27,0,0,0-11.2-11,11.14,11.14,0,0,0-11,11.09Z"/></g></svg>